<?xml version="1.0" encoding="UTF-8"?>
<svg width="454px" height="41px" viewBox="0 0 454 41" version="1.1" xmlns="http://www.w3.org/2000/svg" xmlns:xlink="http://www.w3.org/1999/xlink">
    <!-- Generator: Sketch 48.2 (47327) - http://www.bohemiancoding.com/sketch -->
    <title>Logo</title>
    <desc>Created with Sketch.</desc>
    <defs></defs>
    <g id="Hover-state-images" stroke="none" stroke-width="1" fill="none" fill-rule="evenodd" transform="translate(-286.000000, -22.000000)">
        <g id="Header" transform="translate(16.000000, 12.000000)">
            <g id="Logo" transform="translate(258.000000, 10.000000)">
                <g>
                    <path d="M125.649999,13.832 C125.649999,21.032 120.417999,26.504 113.601999,26.888 L113.601999,34.808 L112.065999,34.808 L112.065999,1.208 L113.265999,1.208 C120.465999,1.208 125.649999,6.68 125.649999,13.832 Z M113.601999,25.4 C119.505999,25.016 124.065999,20.216 124.065999,13.88 C124.065999,7.64 119.697999,2.984 113.601999,2.696 L113.601999,25.4 Z M154.077999,34.76 L146.589999,17.864 L134.013999,17.864 L126.525999,34.76 L124.653999,34.76 L132.285999,17.864 L129.981999,17.864 L129.981999,16.424 L132.909999,16.424 L140.253999,0.152 L140.349999,0.152 L155.949999,34.76 L154.077999,34.76 Z M134.637999,16.424 L145.965999,16.424 L141.261999,5.864 C140.781999,4.76 140.493999,3.944 140.301999,3.368 C140.109999,3.944 139.821999,4.76 139.341999,5.864 L134.637999,16.424 Z M170.025999,2.6 L161.961999,2.6 L161.961999,34.76 L160.425999,34.76 L160.425999,2.6 L152.313999,2.6 L152.793999,1.16 L169.545999,1.16 L170.025999,2.6 Z M177.141999,24.584 L186.885999,34.76 L184.773999,34.76 L174.981999,24.392 L174.981999,24.2 C179.589999,22.28 182.997999,18.104 182.997999,13.016 C182.997999,7.352 178.677999,2.648 172.725999,2.648 L172.725999,34.76 L171.189999,34.76 L171.189999,1.16 L172.581999,1.16 C179.541999,1.16 184.581999,6.392 184.581999,12.92 C184.581999,18.056 181.461999,22.472 177.141999,24.584 Z M240.706,1.16 L242.242,1.16 L242.242,35.432 L242.146,35.432 L221.122,5.912 L220.45,4.952 C220.498,5.288 220.546,5.672 220.546,6.008 L220.546,34.76 L219.01,34.76 L219.01,0.488 L219.106,0.488 L240.13,30.008 C240.37,30.392 240.61,30.68 240.802,30.968 C240.754,30.632 240.706,30.248 240.706,29.912 L240.706,1.16 Z M261.91,34.76 L261.91,34.664 C265.414,31.832 267.718,28.616 267.718,24.968 C267.718,18.92 261.286,15.848 261.286,9.608 C261.286,6.152 263.254,3.032 265.606,1.16 L267.574,1.16 L267.574,1.304 C265.03,2.792 262.918,6.008 262.918,9.368 C262.918,15.224 269.35,18.44 269.35,24.68 C269.35,28.424 267.046,32.216 264.07,34.76 L261.91,34.76 Z M299.938,34.76 L292.45,17.864 L279.874,17.864 L272.386,34.76 L270.514,34.76 L278.146,17.864 L275.842,17.864 L275.842,16.424 L278.77,16.424 L286.114,0.152 L286.21,0.152 L301.81,34.76 L299.938,34.76 Z M280.498,16.424 L291.826,16.424 L287.122,5.864 C286.642,4.76 286.354,3.944 286.162,3.368 C285.97,3.944 285.682,4.76 285.202,5.864 L280.498,16.424 Z M303.934,34.76 L303.934,1.16 L305.47,1.16 L305.47,34.76 L303.934,34.76 Z M331.210001,1.16 L332.746001,1.16 L332.746001,35.432 L332.650001,35.432 L311.626001,5.912 L310.954001,4.952 C311.002001,5.288 311.050001,5.672 311.050001,6.008 L311.050001,34.76 L309.514001,34.76 L309.514001,0.488 L309.610001,0.488 L330.634001,30.008 C330.874001,30.392 331.114001,30.68 331.306001,30.968 C331.258001,30.632 331.210001,30.248 331.210001,29.912 L331.210001,1.16 Z M351.622001,2.6 L343.558001,2.6 L343.558001,34.76 L342.022001,34.76 L342.022001,2.6 L333.910001,2.6 L334.390001,1.16 L351.142001,1.16 L351.622001,2.6 Z M354.322001,33.32 L367.474001,33.32 L366.994001,34.76 L352.786001,34.76 L352.786001,15.752 L350.386001,15.752 L350.386001,14.312 L352.786001,14.312 L352.786001,1.16 L366.898001,1.16 L367.378001,2.6 L354.322001,2.6 L354.322001,14.312 L366.610001,14.312 L366.610001,15.752 L354.322001,15.752 L354.322001,33.32 Z" id="PATR-N-SAINTE" fill="#4A4A4A"></path>
                    <path d="M201.2155,31.478 C194.0155,31.478 188.3635,25.79 188.3635,18.554 C188.3635,11.246 194.0875,5.486 201.3595,5.486 C208.5595,5.486 214.2115,11.174 214.2115,18.41 C214.2115,25.718 208.4875,31.478 201.2155,31.478 Z M201.3235,30.326 C207.8755,30.326 213.0235,25.142 213.0235,18.554 C213.0235,11.894 207.8395,6.638 201.2515,6.638 C194.6995,6.638 189.5515,11.822 189.5515,18.41 C189.5515,25.07 194.7355,30.326 201.3235,30.326 Z" id="O" stroke="#4A4A4A" stroke-width="0.5" fill="#4A4A4A"></path>
                    <path d="M185.5,34.5 C192.5,40.1666667 201,41.3333333 211,38" id="R-bend" stroke="#4A4A4A" stroke-width="1.5" stroke-linecap="square"></path>
                    <g id="shooting-stars" transform="translate(389.679581, 10.000000)">
                        <g id="Group-4-Copy" transform="translate(38.500000, 10.500000) scale(-1, 1) translate(-38.500000, -10.500000) translate(0.000000, 1.000000)">
                            <path d="M76.0037428,17.75 L32.0500602,17.75" id="Line-4-Copy" stroke="#4A4A4A" stroke-width="0.75" stroke-linecap="square"></path>
                            <path d="M53.8507022,9 L13.4969023,9" id="Line-4-Copy-2" stroke="#4A4A4A" stroke-width="0.75" stroke-linecap="square"></path>
                            <g id="Group" transform="translate(57.000000, 8.000000)" stroke="#4A4A4A" stroke-linecap="round" stroke-width="0.75">
                                <path d="M2.55238189,1 L0.552381887,1" id="Line-4-Copy-3"></path>
                                <path d="M7.86825459,1 L5.86825459,1" id="Line-4-Copy-4"></path>
                                <path d="M13.1841273,1 L11.1841273,1" id="Line-4-Copy-6"></path>
                                <path d="M18.5038589,1 L16.5,1" id="Line-4-Copy-5"></path>
                            </g>
                            <path d="M76.0037428,0.75 L32.0500602,0.75" id="Line-4" stroke="#4A4A4A" stroke-width="0.75" stroke-linecap="square"></path>
                            <polygon id="Star" fill="#4A4A4A" transform="translate(4.627129, 9.000000) rotate(-90.000000) translate(-4.627129, -9.000000) " points="4.62712937 10.6080604 2.73895123 13.1363245 3.53836787 10.0837405 0.384431591 10.1838503 3.26946599 8.90560436 1.22474992 6.5021751 4.02291232 7.96081254 4.62712937 4.86367551 5.23134642 7.96081254 8.02950882 6.5021751 5.98479276 8.90560436 8.86982715 10.1838503 5.71589087 10.0837405 6.51530752 13.1363245"></polygon>
                        </g>
                    </g>
                    <g id="shooting-stars" transform="translate(44.906250, 20.000000) scale(-1, 1) translate(-44.906250, -20.000000) translate(0.906250, 10.000000)">
                        <g id="Group-4-Copy" transform="translate(38.500000, 10.500000) scale(-1, 1) translate(-38.500000, -10.500000) translate(0.000000, 1.000000)">
                            <path d="M76.0037428,17.75 L32.0500602,17.75" id="Line-4-Copy" stroke="#4A4A4A" stroke-width="0.75" stroke-linecap="square"></path>
                            <path d="M53.8507022,9 L13.4969023,9" id="Line-4-Copy-2" stroke="#4A4A4A" stroke-width="0.75" stroke-linecap="square"></path>
                            <g id="Group" transform="translate(57.000000, 8.000000)" stroke="#4A4A4A" stroke-linecap="round" stroke-width="0.75">
                                <path d="M2.55238189,1 L0.552381887,1" id="Line-4-Copy-3"></path>
                                <path d="M7.86825459,1 L5.86825459,1" id="Line-4-Copy-4"></path>
                                <path d="M13.1841273,1 L11.1841273,1" id="Line-4-Copy-6"></path>
                                <path d="M18.5038589,1 L16.5,1" id="Line-4-Copy-5"></path>
                            </g>
                            <path d="M76.0037428,0.75 L32.0500602,0.75" id="Line-4" stroke="#4A4A4A" stroke-width="0.75" stroke-linecap="square"></path>
                            <polygon id="Star" fill="#4A4A4A" transform="translate(4.627129, 9.000000) rotate(-90.000000) translate(-4.627129, -9.000000) " points="4.62712937 10.6080604 2.73895123 13.1363245 3.53836787 10.0837405 0.384431591 10.1838503 3.26946599 8.90560436 1.22474992 6.5021751 4.02291232 7.96081254 4.62712937 4.86367551 5.23134642 7.96081254 8.02950882 6.5021751 5.98479276 8.90560436 8.86982715 10.1838503 5.71589087 10.0837405 6.51530752 13.1363245"></polygon>
                        </g>
                    </g>
                </g>
            </g>
        </g>
    </g>
</svg>