<?xml version="1.0" encoding="UTF-8"?>
<svg width="453px" height="41px" viewBox="0 0 453 41" version="1.1" xmlns="http://www.w3.org/2000/svg" xmlns:xlink="http://www.w3.org/1999/xlink">
    <!-- Generator: Sketch 54 (76480) - https://sketchapp.com -->
    <title>logo</title>
    <desc>Created with Sketch.</desc>
    <g id="Page-1" stroke="none" stroke-width="1" fill="none" fill-rule="evenodd">
        <g id="logo">
            <path d="M112.649999,13.832 C112.649999,21.032 107.417999,26.504 100.601999,26.888 L100.601999,34.808 L99.065999,34.808 L99.065999,1.208 L100.265999,1.208 C107.465999,1.208 112.649999,6.68 112.649999,13.832 Z M100.601999,25.4 C106.505999,25.016 111.065999,20.216 111.065999,13.88 C111.065999,7.64 106.697999,2.984 100.601999,2.696 L100.601999,25.4 Z M141.077999,34.76 L133.589999,17.864 L121.013999,17.864 L113.525999,34.76 L111.653999,34.76 L119.285999,17.864 L116.981999,17.864 L116.981999,16.424 L119.909999,16.424 L127.253999,0.152 L127.349999,0.152 L142.949999,34.76 L141.077999,34.76 Z M121.637999,16.424 L132.965999,16.424 L128.261999,5.864 C127.781999,4.76 127.493999,3.944 127.301999,3.368 C127.109999,3.944 126.821999,4.76 126.341999,5.864 L121.637999,16.424 Z M157.025999,2.6 L148.961999,2.6 L148.961999,34.76 L147.425999,34.76 L147.425999,2.6 L139.313999,2.6 L139.793999,1.16 L156.545999,1.16 L157.025999,2.6 Z M164.141999,24.584 L173.885999,34.76 L171.773999,34.76 L161.981999,24.392 L161.981999,24.2 C166.589999,22.28 169.997999,18.104 169.997999,13.016 C169.997999,7.352 165.677999,2.648 159.725999,2.648 L159.725999,34.76 L158.189999,34.76 L158.189999,1.16 L159.581999,1.16 C166.541999,1.16 171.581999,6.392 171.581999,12.92 C171.581999,18.056 168.461999,22.472 164.141999,24.584 Z M227.706,1.16 L229.242,1.16 L229.242,35.432 L229.146,35.432 L208.122,5.912 L207.45,4.952 C207.498,5.288 207.546,5.672 207.546,6.008 L207.546,34.76 L206.01,34.76 L206.01,0.488 L206.106,0.488 L227.13,30.008 C227.37,30.392 227.61,30.68 227.802,30.968 C227.754,30.632 227.706,30.248 227.706,29.912 L227.706,1.16 Z M248.91,34.76 L248.91,34.664 C252.414,31.832 254.718,28.616 254.718,24.968 C254.718,18.92 248.286,15.848 248.286,9.608 C248.286,6.152 250.254,3.032 252.606,1.16 L254.574,1.16 L254.574,1.304 C252.03,2.792 249.918,6.008 249.918,9.368 C249.918,15.224 256.35,18.44 256.35,24.68 C256.35,28.424 254.046,32.216 251.07,34.76 L248.91,34.76 Z M286.938,34.76 L279.45,17.864 L266.874,17.864 L259.386,34.76 L257.514,34.76 L265.146,17.864 L262.842,17.864 L262.842,16.424 L265.77,16.424 L273.114,0.152 L273.21,0.152 L288.81,34.76 L286.938,34.76 Z M267.498,16.424 L278.826,16.424 L274.122,5.864 C273.642,4.76 273.354,3.944 273.162,3.368 C272.97,3.944 272.682,4.76 272.202,5.864 L267.498,16.424 Z M290.934,34.76 L290.934,1.16 L292.47,1.16 L292.47,34.76 L290.934,34.76 Z M318.210001,1.16 L319.746001,1.16 L319.746001,35.432 L319.650001,35.432 L298.626001,5.912 L297.954001,4.952 C298.002001,5.288 298.050001,5.672 298.050001,6.008 L298.050001,34.76 L296.514001,34.76 L296.514001,0.488 L296.610001,0.488 L317.634001,30.008 C317.874001,30.392 318.114001,30.68 318.306001,30.968 C318.258001,30.632 318.210001,30.248 318.210001,29.912 L318.210001,1.16 Z M338.622001,2.6 L330.558001,2.6 L330.558001,34.76 L329.022001,34.76 L329.022001,2.6 L320.910001,2.6 L321.390001,1.16 L338.142001,1.16 L338.622001,2.6 Z M341.322001,33.32 L354.474001,33.32 L353.994001,34.76 L339.786001,34.76 L339.786001,15.752 L337.386001,15.752 L337.386001,14.312 L339.786001,14.312 L339.786001,1.16 L353.898001,1.16 L354.378001,2.6 L341.322001,2.6 L341.322001,14.312 L353.610001,14.312 L353.610001,15.752 L341.322001,15.752 L341.322001,33.32 Z" id="PATR-N-SAINTE" fill="#4A4A4A" fill-rule="nonzero"></path>
            <path d="M188.2155,31.478 C181.0155,31.478 175.3635,25.79 175.3635,18.554 C175.3635,11.246 181.0875,5.486 188.3595,5.486 C195.5595,5.486 201.2115,11.174 201.2115,18.41 C201.2115,25.718 195.4875,31.478 188.2155,31.478 Z M188.3235,30.326 C194.8755,30.326 200.0235,25.142 200.0235,18.554 C200.0235,11.894 194.8395,6.638 188.2515,6.638 C181.6995,6.638 176.5515,11.822 176.5515,18.41 C176.5515,25.07 181.7355,30.326 188.3235,30.326 Z" id="O" stroke="#4A4A4A" stroke-width="0.5" fill="#4A4A4A" fill-rule="nonzero"></path>
            <path d="M172.5,34.5 C179.5,40.1666667 188,41.3333333 198,38" id="R-bend" stroke="#4A4A4A" stroke-width="1.5" stroke-linecap="square"></path>
            <g id="stars" transform="translate(415.295150, 20.250000) scale(-1, 1) translate(-415.295150, -20.250000) translate(377.295150, 11.250000)">
                <path d="M75.6193116,17.5 L31.665629,17.5" id="Line-4-Copy" stroke="#4A4A4A" stroke-width="1" stroke-linecap="square"></path>
                <path d="M53.466271,8.75 L13.1124711,8.75" id="Line-4-Copy-2" stroke="#4A4A4A" stroke-width="1" stroke-linecap="square"></path>
                <g id="Group" stroke-linecap="round" stroke-width="1" fill-rule="evenodd" transform="translate(56.615569, 7.750000)" stroke="#4A4A4A">
                    <path d="M2.55238189,1 L0.552381887,1" id="Line-4-Copy-3"></path>
                    <path d="M7.86825459,1 L5.86825459,1" id="Line-4-Copy-4"></path>
                    <path d="M13.1841273,1 L11.1841273,1" id="Line-4-Copy-6"></path>
                    <path d="M18.5038589,1 L16.5,1" id="Line-4-Copy-5"></path>
                </g>
                <path d="M75.6193116,0.5 L31.665629,0.5" id="Line-4" stroke="#4A4A4A" stroke-width="1" stroke-linecap="square"></path>
                <polygon id="Star" fill="#4A4A4A" fill-rule="nonzero" transform="translate(4.242698, 8.750000) rotate(-90.000000) translate(-4.242698, -8.750000) " points="4.24269778 10.35806 2.35451964 12.8863241 3.15393628 9.83374012 1.95399252e-14 9.93384992 2.8850344 8.65560398 0.840318329 6.25217472 3.63848073 7.71081216 4.24269778 4.61367513 4.84691483 7.71081216 7.64507723 6.25217472 5.60036117 8.65560398 8.48539556 9.93384992 5.33145928 9.83374012 6.13087593 12.8863241"></polygon>
            </g>
            <g id="stars" transform="translate(0.244850, 11.250000)">
                <path d="M75.6193116,17.5 L31.665629,17.5" id="Line-4-Copy" stroke="#4A4A4A" stroke-width="1" stroke-linecap="square"></path>
                <path d="M53.466271,8.75 L13.1124711,8.75" id="Line-4-Copy-2" stroke="#4A4A4A" stroke-width="1" stroke-linecap="square"></path>
                <g id="Group" stroke-linecap="round" stroke-width="1" fill-rule="evenodd" transform="translate(56.615569, 7.750000)" stroke="#4A4A4A">
                    <path d="M2.55238189,1 L0.552381887,1" id="Line-4-Copy-3"></path>
                    <path d="M7.86825459,1 L5.86825459,1" id="Line-4-Copy-4"></path>
                    <path d="M13.1841273,1 L11.1841273,1" id="Line-4-Copy-6"></path>
                    <path d="M18.5038589,1 L16.5,1" id="Line-4-Copy-5"></path>
                </g>
                <path d="M75.6193116,0.5 L31.665629,0.5" id="Line-4" stroke="#4A4A4A" stroke-width="1" stroke-linecap="square"></path>
                <polygon id="Star" fill="#4A4A4A" fill-rule="nonzero" transform="translate(4.242698, 8.750000) rotate(-90.000000) translate(-4.242698, -8.750000) " points="4.24269778 10.35806 2.35451964 12.8863241 3.15393628 9.83374012 1.95399252e-14 9.93384992 2.8850344 8.65560398 0.840318329 6.25217472 3.63848073 7.71081216 4.24269778 4.61367513 4.84691483 7.71081216 7.64507723 6.25217472 5.60036117 8.65560398 8.48539556 9.93384992 5.33145928 9.83374012 6.13087593 12.8863241"></polygon>
            </g>
        </g>
    </g>
</svg>