<?xml version="1.0" encoding="UTF-8"?>
<svg width="606px" height="74px" viewBox="0 0 606 74" version="1.1" xmlns="http://www.w3.org/2000/svg" xmlns:xlink="http://www.w3.org/1999/xlink">
    <!-- Generator: Sketch 54 (76480) - https://sketchapp.com -->
    <title>Logo</title>
    <desc>Created with Sketch.</desc>
    <g id="Logo" stroke="none" stroke-width="1" fill="none" fill-rule="evenodd">
        <g transform="translate(29.000000, 11.500000)">
            <g id="Wordmark" transform="translate(118.291667, 0.000000)" fill="#424240">
                <g id="Patron" transform="translate(0.000000, 0.063750)">
                    <path d="M1.88983333,31.0675 L1.88983333,3.130125 C9.39108333,3.485 14.7659167,9.214 14.7659167,16.8923333 C14.7659167,24.6889583 9.15520833,30.5950417 1.88983333,31.0675 Z M1.47616667,1.29908333 L-2.13162821e-14,1.29908333 L-2.13162821e-14,42.6445 L1.88983333,42.6445 L1.88983333,32.8985417 C10.2772083,32.4260833 16.71525,25.693375 16.71525,16.8335417 C16.71525,8.0325 10.336,1.29908333 1.47616667,1.29908333 L1.47616667,1.29908333 Z" id="Fill-3"></path>
                    <path d="M33.5629583,7.02879167 C34.1537083,5.67020833 34.507875,4.66579167 34.7444583,3.95745833 C34.9810417,4.66579167 35.3352083,5.67020833 35.9259583,7.02879167 L41.71375,20.0231667 L27.7744583,20.0231667 L33.5629583,7.02879167 Z M15.4898333,42.585 L17.7933333,42.585 L27.006625,21.7947083 L42.4822917,21.7947083 L51.6955833,42.585 L53.9990833,42.585 L34.80325,0 L34.6856667,0 L25.64875,20.0231667 L22.0454583,20.0231667 L22.0454583,21.7947083 L24.8809167,21.7947083 L15.4898333,42.585 L15.4898333,42.585 Z" id="Fill-4"></path>
                    <polyline id="Fill-10" points="50.116 1.24029167 49.52525 3.01183333 59.5070833 3.01183333 59.5070833 42.585 61.3969167 42.585 61.3969167 3.01183333 71.3199583 3.01183333 70.7292083 1.24029167 50.116 1.24029167"></polyline>
                    <path d="M121.718583,45.5947083 C117.559958,46.9908333 113.205125,47.865625 108.82125,47.8479167 C104.497583,47.8302083 100.13425,46.922125 96.2851667,44.9189583 C92.681875,43.0432917 89.672875,40.2645 86.8877083,37.349 C85.0474583,35.4230417 83.2907917,33.4205833 81.4484167,31.4974583 C80.9915417,31.0193333 80.5339583,30.5412083 80.076375,30.0637917 C85.3917083,27.4649167 89.2315833,22.0312917 89.2315833,15.7108333 C89.2315833,7.67833333 83.0294167,1.24029167 74.4649583,1.24029167 L72.7522083,1.24029167 L72.7522083,42.585 L74.6420417,42.585 L74.6420417,3.07133333 C81.9662083,3.07133333 87.28225,8.85983333 87.28225,15.829125 C87.28225,22.0900833 83.0882083,27.2283333 77.418,29.590625 L77.418,29.8272083 C79.1789167,31.6915417 80.9398333,33.5565833 82.6993333,35.4209167 C85.3435417,38.2230833 87.8085417,41.2745833 90.8678333,43.6460833 C94.52425,46.480125 98.8408333,48.4811667 103.400375,49.3099167 C109.9135,50.4928333 116.666042,49.3219583 122.927,47.1693333 C122.8335,47.066625 121.907708,45.8419167 121.718583,45.5947083" id="Fill-12"></path>
                    <path d="M109.742792,8.157875 C101.769083,8.157875 95.523,14.4429167 95.523,22.4662083 C95.523,30.589375 101.808042,36.9523333 109.832042,36.9523333 C117.805042,36.9523333 124.051125,30.6672917 124.051125,22.644 C124.051125,14.5208333 117.766083,8.157875 109.742792,8.157875 Z M109.698167,38.723875 C100.731375,38.723875 93.7068333,31.660375 93.7068333,22.644 C93.7068333,13.52775 100.809292,6.38633333 109.875958,6.38633333 C118.84275,6.38633333 125.867292,13.4498333 125.867292,22.4662083 C125.867292,31.5824583 118.764833,38.723875 109.698167,38.723875 L109.698167,38.723875 Z" id="Fill-1"></path>
                    <path d="M158.291958,1.24029167 L158.291958,36.6194167 C158.291958,37.0330833 158.35075,37.5055417 158.41025,37.9192083 C158.173667,37.5650417 157.878292,37.2101667 157.582917,36.7377083 L131.712458,0.412958333 L131.594875,0.412958333 L131.594875,42.585 L133.484708,42.585 L133.484708,7.205875 C133.484708,6.79220833 133.425208,6.31975 133.366417,5.90608333 L134.193042,7.08758333 L160.0635,43.4123333 L160.181792,43.4123333 L160.181792,1.24029167 L158.291958,1.24029167" id="Fill-8"></path>
                </g>
                <g id="Sainte" transform="translate(180.972792, 0.000000)">
                    <path d="M7.73783333,1.417375 L7.73783333,1.24029167 L5.31604167,1.24029167 C2.42179167,3.54379167 7.10542736e-15,7.38295833 7.10542736e-15,11.6357917 C7.10542736e-15,19.314125 7.91491667,23.0945 7.91491667,30.53625 C7.91491667,35.0249583 5.07945833,38.9824167 0.767833333,42.4667083 L0.767833333,42.585 L3.42620833,42.585 C7.08758333,39.454875 9.92304167,34.788375 9.92304167,30.1820833 C9.92304167,22.50375 2.008125,18.5462917 2.008125,11.3404167 C2.008125,7.205875 4.607,3.24841667 7.73783333,1.417375" id="Fill-2"></path>
                    <path d="M37.5792083,20.0231667 L23.640625,20.0231667 L29.429125,7.02879167 C30.0191667,5.67020833 30.3740417,4.6665 30.6099167,3.95745833 C30.8465,4.6665 31.2006667,5.67020833 31.7914167,7.02879167 L37.5792083,20.0231667 Z M30.551125,0 L21.5142083,20.0231667 L17.9109167,20.0231667 L17.9109167,21.7947083 L20.746375,21.7947083 L11.3552917,42.585 L13.6587917,42.585 L22.8727917,21.7947083 L38.3470417,21.7947083 L47.56175,42.585 L49.86525,42.585 L30.6694167,0 L30.551125,0 L30.551125,0 Z" id="Fill-5"></path>
                    <polygon id="Fill-6" points="52.4782917 42.585 54.368125 42.585 54.368125 1.24029167 52.4782917 1.24029167"></polygon>
                    <path d="M86.0419583,36.6194167 C86.0419583,37.0330833 86.10075,37.5055417 86.1595417,37.9192083 C85.9236667,37.5643333 85.6282917,37.2101667 85.3329167,36.7377083 L59.4624583,0.413666667 L59.344875,0.413666667 L59.344875,42.585 L61.2347083,42.585 L61.2347083,7.205875 C61.2347083,6.79220833 61.1752083,6.31975 61.1164167,5.90679167 L61.9430417,7.08758333 L87.8135,43.4123333 L87.9317917,43.4123333 L87.9317917,1.24029167 L86.0419583,1.24029167 L86.0419583,36.6194167" id="Fill-11"></path>
                    <polyline id="Fill-7" points="110.568 1.24029167 89.9547917 1.24029167 89.3640417 3.01254167 99.345875 3.01254167 99.345875 42.585 101.235708 42.585 101.235708 3.01254167 111.15875 3.01254167 110.568 1.24029167"></polyline>
                    <polyline id="Fill-9" points="114.480833 19.1958333 129.601625 19.1958333 129.601625 17.4242917 114.480833 17.4242917 114.480833 3.01254167 130.546542 3.01254167 129.955792 1.24029167 112.591 1.24029167 112.591 17.4242917 109.63725 17.4242917 109.63725 19.1958333 112.591 19.1958333 112.591 42.585 130.074083 42.585 130.664833 40.8134583 114.480833 40.8134583 114.480833 19.1958333"></polyline>
                </g>
            </g>
            <g id="logo" transform="translate(0.000000, 14.054042)">
                <g id="shooting-stars" transform="translate(455.982757, 0.112625)">
                    <g transform="translate(0.000000, -0.000000)">
                        <path d="M53.4188858,21.3739583 L0.491326378,21.3739583" id="Line-4-Copy" stroke="#4A4A4A" stroke-width="0.8" stroke-linecap="square" transform="translate(26.955106, 21.373958) scale(-1, 1) translate(-26.955106, -21.373958) "></path>
                        <path d="M75.7599801,10.8375 L27.1672794,10.8375" id="Line-4-Copy-2" stroke="#4A4A4A" stroke-width="0.8" stroke-linecap="square" transform="translate(51.463630, 10.837500) scale(-1, 1) translate(-51.463630, -10.837500) "></path>
                        <g id="Group" stroke-linecap="round" transform="translate(11.875000, 10.633333) scale(-1, 1) translate(-11.875000, -10.633333) translate(0.375000, 9.633333)" stroke="#4A4A4A" stroke-width="0.8">
                            <path d="M3.07349319,1.20416667 L0.665159856,1.20416667" id="Line-4-Copy-3"></path>
                            <path d="M9.4746899,1.20416667 L7.06635657,1.20416667" id="Line-4-Copy-4"></path>
                            <path d="M15.8758866,1.20416667 L13.4675533,1.20416667" id="Line-4-Copy-6"></path>
                            <path d="M22.2817301,1.20416667 L19.86875,1.20416667" id="Line-4-Copy-5"></path>
                        </g>
                        <path d="M53.4188858,0.903125 L0.491326378,0.903125" id="Line-4" stroke="#4A4A4A" stroke-width="0.8" stroke-linecap="square" transform="translate(26.955106, 0.903125) scale(-1, 1) translate(-26.955106, -0.903125) "></path>
                        <path d="M86.4406655,12.7738723 L84.7804197,14.9969357 C84.7143253,15.0854359 84.5890017,15.1035993 84.5005016,15.037505 C84.4352595,14.9887803 84.4060715,14.9053658 84.4267005,14.8265936 L85.1296152,12.1425037 L82.3564079,12.2305287 C82.2460065,12.234033 82.1536678,12.1473758 82.1501635,12.0369745 C82.1475801,11.9555868 82.1945978,11.8807586 82.2690464,11.8477733 L84.8058125,10.7238315 L83.0079253,8.61053335 C82.9363515,8.52640298 82.9465305,8.40017975 83.0306609,8.32860589 C83.0926817,8.27584177 83.1804997,8.26594705 83.2527066,8.30358734 L85.7130875,9.58614465 L86.2443662,6.86288003 C86.2655163,6.7544669 86.3705482,6.68372632 86.4789613,6.70487651 C86.5588833,6.7204684 86.6213729,6.78295807 86.6369648,6.86288003 L87.1682435,9.58614465 L89.6286244,8.30358734 C89.7265721,8.25252875 89.8473656,8.29053991 89.8984242,8.38848764 C89.9360645,8.46069453 89.9261698,8.54851259 89.8734056,8.61053335 L88.0755185,10.7238315 L90.6122845,11.8477733 C90.7132732,11.8925174 90.7588684,12.0106572 90.7141242,12.1116458 C90.681139,12.1860944 90.6063108,12.2331121 90.5249231,12.2305287 L87.7517158,12.1425037 L88.4546305,14.8265936 C88.4826135,14.9334471 88.4186763,15.0427538 88.3118227,15.0707368 C88.2330504,15.0913659 88.1496359,15.0621779 88.1009113,14.9969357 L86.4406655,12.7738723 Z" id="Star" fill="#424240" fill-rule="nonzero" transform="translate(86.440665, 10.837500) scale(-1, 1) rotate(-90.000000) translate(-86.440665, -10.837500) "></path>
                    </g>
                </g>
                <g id="shooting-stars" transform="translate(46.500000, 11.112625) scale(-1, 1) translate(-46.500000, -11.112625) translate(0.500000, 0.112625)">
                    <g transform="translate(0.000000, -0.000000)">
                        <path d="M53.4188858,21.3739583 L0.491326378,21.3739583" id="Line-4-Copy" stroke="#4A4A4A" stroke-width="0.8" stroke-linecap="square" transform="translate(26.955106, 21.373958) scale(-1, 1) translate(-26.955106, -21.373958) "></path>
                        <path d="M75.7599801,10.8375 L27.1672794,10.8375" id="Line-4-Copy-2" stroke="#4A4A4A" stroke-width="0.8" stroke-linecap="square" transform="translate(51.463630, 10.837500) scale(-1, 1) translate(-51.463630, -10.837500) "></path>
                        <g id="Group" stroke-linecap="round" transform="translate(11.875000, 10.633333) scale(-1, 1) translate(-11.875000, -10.633333) translate(0.375000, 9.633333)" stroke="#4A4A4A" stroke-width="0.8">
                            <path d="M3.07349319,1.20416667 L0.665159856,1.20416667" id="Line-4-Copy-3"></path>
                            <path d="M9.4746899,1.20416667 L7.06635657,1.20416667" id="Line-4-Copy-4"></path>
                            <path d="M15.8758866,1.20416667 L13.4675533,1.20416667" id="Line-4-Copy-6"></path>
                            <path d="M22.2817301,1.20416667 L19.86875,1.20416667" id="Line-4-Copy-5"></path>
                        </g>
                        <path d="M53.4188858,0.903125 L0.491326378,0.903125" id="Line-4" stroke="#4A4A4A" stroke-width="0.8" stroke-linecap="square" transform="translate(26.955106, 0.903125) scale(-1, 1) translate(-26.955106, -0.903125) "></path>
                        <path d="M86.4406655,12.7738723 L84.7804197,14.9969357 C84.7143253,15.0854359 84.5890017,15.1035993 84.5005016,15.037505 C84.4352595,14.9887803 84.4060715,14.9053658 84.4267005,14.8265936 L85.1296152,12.1425037 L82.3564079,12.2305287 C82.2460065,12.234033 82.1536678,12.1473758 82.1501635,12.0369745 C82.1475801,11.9555868 82.1945978,11.8807586 82.2690464,11.8477733 L84.8058125,10.7238315 L83.0079253,8.61053335 C82.9363515,8.52640298 82.9465305,8.40017975 83.0306609,8.32860589 C83.0926817,8.27584177 83.1804997,8.26594705 83.2527066,8.30358734 L85.7130875,9.58614465 L86.2443662,6.86288003 C86.2655163,6.7544669 86.3705482,6.68372632 86.4789613,6.70487651 C86.5588833,6.7204684 86.6213729,6.78295807 86.6369648,6.86288003 L87.1682435,9.58614465 L89.6286244,8.30358734 C89.7265721,8.25252875 89.8473656,8.29053991 89.8984242,8.38848764 C89.9360645,8.46069453 89.9261698,8.54851259 89.8734056,8.61053335 L88.0755185,10.7238315 L90.6122845,11.8477733 C90.7132732,11.8925174 90.7588684,12.0106572 90.7141242,12.1116458 C90.681139,12.1860944 90.6063108,12.2331121 90.5249231,12.2305287 L87.7517158,12.1425037 L88.4546305,14.8265936 C88.4826135,14.9334471 88.4186763,15.0427538 88.3118227,15.0707368 C88.2330504,15.0913659 88.1496359,15.0621779 88.1009113,14.9969357 L86.4406655,12.7738723 Z" id="Star" fill="#424240" fill-rule="nonzero" transform="translate(86.440665, 10.837500) scale(-1, 1) rotate(-90.000000) translate(-86.440665, -10.837500) "></path>
                    </g>
                </g>
            </g>
        </g>
    </g>
</svg>